<svg width="26" height="15" viewBox="0 0 26 15" fill="none" xmlns="http://www.w3.org/2000/svg">
<path id="Path 30" d="M25.9627 1.23603C26.17 1.80736 25.493 3.11903 23.9317 5.17103C23.715 5.45636 23.4217 5.83569 23.0517 6.30903C22.691 6.76436 22.4427 7.0857 22.3067 7.27303C22.1557 7.48544 22.0178 7.70685 21.8937 7.93602C21.7768 8.09923 21.7196 8.29765 21.7317 8.49802C21.7776 8.6566 21.8364 8.81113 21.9077 8.96003C22.0164 9.17825 22.1658 9.37374 22.3477 9.53603C22.555 9.73203 22.8124 9.96836 23.1197 10.245C23.1473 10.2557 23.171 10.2746 23.1877 10.299C24.1907 11.1523 25.0621 12.1491 25.7737 13.257C25.8059 13.3112 25.8352 13.3669 25.8617 13.424C25.9066 13.5384 25.9385 13.6575 25.9567 13.779C25.9886 13.9293 25.9862 14.0848 25.9497 14.234C25.8892 14.396 25.7679 14.528 25.6117 14.602C25.3642 14.7267 25.0884 14.7843 24.8117 14.769L21.3467 14.823C21.0924 14.8647 20.8317 14.8417 20.5887 14.756C20.3449 14.6852 20.11 14.5865 19.8887 14.462L19.6177 14.301C19.2736 14.0481 18.9559 13.761 18.6697 13.444C18.309 13.06 18 12.7144 17.7427 12.407C17.5015 12.1143 17.2239 11.8536 16.9167 11.631C16.8149 11.5381 16.6923 11.4709 16.5593 11.4349C16.4262 11.3989 16.2865 11.3952 16.1517 11.424C16.1147 11.4373 16.0786 11.453 16.0437 11.471C15.9591 11.5256 15.8818 11.5908 15.8137 11.665C15.6981 11.7819 15.6001 11.915 15.5227 12.06C15.4147 12.2819 15.3373 12.5174 15.2927 12.76C15.2221 13.101 15.1926 13.4491 15.2047 13.797C15.2061 13.9213 15.1903 14.0451 15.1577 14.165C15.1369 14.2522 15.1032 14.3358 15.0577 14.413L15.0037 14.48C14.8092 14.6632 14.5538 14.7679 14.2867 14.774H12.7247C12.0584 14.8068 11.3913 14.7322 10.7487 14.553C10.1279 14.3927 9.52978 14.1545 8.96871 13.844C8.48939 13.5735 8.02413 13.2788 7.57471 12.961C7.23754 12.7291 6.91861 12.4716 6.62071 12.191L6.28271 11.87C6.19271 11.7807 6.06871 11.6474 5.91071 11.47C5.75271 11.2927 5.43004 10.8867 4.94271 10.252C4.45538 9.6187 3.97704 8.94502 3.50771 8.23102C3.03837 7.51702 2.48571 6.5757 1.84971 5.40703C1.21371 4.23837 0.624708 3.02469 0.0827081 1.76603C0.0346945 1.65139 0.00727515 1.52919 0.0017087 1.40503C-0.00326963 1.33136 0.010851 1.25765 0.0427072 1.19103L0.096708 1.11103C0.198549 1.01416 0.320633 0.941133 0.454141 0.897206C0.58765 0.85328 0.729249 0.839558 0.868707 0.85703L4.57771 0.830022C4.68427 0.847432 4.78858 0.876616 4.88871 0.917028C4.96579 0.9452 5.03877 0.983537 5.10571 1.03103L5.17371 1.07103C5.32383 1.17652 5.43742 1.32609 5.49871 1.49903C5.67937 1.94503 5.88704 2.40669 6.12171 2.88402C6.35638 3.36136 6.54137 3.72503 6.67671 3.97503L6.89371 4.36303C7.15571 4.89636 7.40837 5.36036 7.65171 5.75502C7.84522 6.07817 8.06496 6.38488 8.30871 6.67203C8.47505 6.86529 8.6637 7.03816 8.87071 7.18703C9.00244 7.29303 9.16238 7.35805 9.33071 7.37403C9.45545 7.3742 9.57916 7.35149 9.69571 7.30703C9.72279 7.28967 9.74595 7.26685 9.76371 7.24003C9.82386 7.14555 9.87797 7.04736 9.92571 6.94603C10.0185 6.74696 10.0802 6.53481 10.1087 6.31702C10.1494 6.05835 10.1924 5.69702 10.2377 5.23302C10.2831 4.67628 10.2831 4.11677 10.2377 3.56003C10.2232 3.23163 10.1824 2.90491 10.1157 2.58303C10.0788 2.37046 10.0149 2.16347 9.92571 1.96703L9.84471 1.80602C9.70064 1.63848 9.52468 1.50128 9.32708 1.40239C9.12947 1.30351 8.91417 1.24491 8.69371 1.23003C8.57638 1.21203 8.59904 1.10503 8.76171 0.909032C8.90381 0.741868 9.07876 0.605705 9.27571 0.509023C10.3255 0.206014 11.4218 0.0972312 12.5107 0.188024C13.124 0.184308 13.7361 0.242615 14.3377 0.362035C14.4972 0.398366 14.6501 0.459438 14.7907 0.543035C14.9135 0.619701 15.0104 0.731552 15.0687 0.864034C15.1314 1.00112 15.179 1.14463 15.2107 1.29203C15.2467 1.49294 15.2625 1.69696 15.2577 1.90102C15.2577 2.15969 15.253 2.40503 15.2437 2.63703C15.2344 2.86903 15.223 3.1837 15.2097 3.58103C15.1964 3.98103 15.1897 4.34769 15.1897 4.68102C15.1897 4.77902 15.185 4.96636 15.1757 5.24303C15.1664 5.5197 15.164 5.7337 15.1687 5.88503C15.1734 6.03703 15.189 6.21769 15.2157 6.42702C15.2345 6.60927 15.2874 6.78635 15.3717 6.94903C15.4425 7.08187 15.5457 7.1947 15.6717 7.27703C15.7437 7.29503 15.8204 7.31303 15.9017 7.33103C15.983 7.34903 16.1004 7.30003 16.2537 7.18403C16.4357 7.04232 16.6075 6.88793 16.7677 6.72202C17.0254 6.44175 17.2595 6.14074 17.4677 5.82203C17.7477 5.41603 18.0544 4.93636 18.3877 4.38303C18.9469 3.41801 19.431 2.41137 19.8357 1.37203C19.8689 1.28778 19.9144 1.20891 19.9707 1.13802C20.0119 1.08282 20.0623 1.03513 20.1197 0.997029L20.1737 0.957021L20.2417 0.924031L20.4177 0.884023L20.6887 0.877034L24.5887 0.850026C24.8766 0.802187 25.1713 0.813419 25.4547 0.883031C25.614 0.912094 25.7606 0.989209 25.8747 1.10402L25.9627 1.23603Z" fill="white"/>
</svg>
