<svg width="229" height="60" viewBox="0 0 229 60" fill="none" xmlns="http://www.w3.org/2000/svg">
<g filter="url(#filter0_i_963_19933)">
<rect width="229" height="60" fill="#070D13"/>
<path d="M29.8159 34.0655L31.6107 30.1768C32.6052 28.0221 33.1025 26.9447 32.5934 26.4513C32.0843 25.9579 31.0213 26.4893 28.8953 27.5523C28.4558 27.7721 28.2361 27.882 28 27.882C27.7639 27.882 27.5442 27.7721 27.1047 27.5523C24.9787 26.4893 23.9157 25.9579 23.4066 26.4513C22.8975 26.9447 23.3948 28.0221 24.3893 30.1768L26.1841 34.0655C26.9681 35.7643 27.3602 36.6137 28 36.6137C28.6398 36.6137 29.0319 35.7643 29.8159 34.0655Z" fill="#A02323"/>
<path d="M48.98 31.612V30.408H53.068V31.612H48.98ZM54.729 33.796L55.513 32.788C56.0916 33.4973 56.815 33.852 57.683 33.852C58.2803 33.852 58.789 33.6653 59.209 33.292C59.629 32.9187 59.839 32.438 59.839 31.85C59.839 31.262 59.6243 30.7767 59.195 30.394C58.775 30.0113 58.243 29.82 57.599 29.82C56.983 29.82 56.4276 29.9833 55.933 30.31L55.121 30.016L55.611 25.116H60.609V26.32H56.815L56.591 28.406L56.507 28.91H56.535C56.9083 28.714 57.3376 28.616 57.823 28.616C58.8496 28.616 59.6803 28.9287 60.315 29.554C60.9496 30.17 61.267 30.9353 61.267 31.85C61.267 32.7927 60.931 33.5813 60.259 34.216C59.5963 34.8507 58.7656 35.168 57.767 35.168C57.179 35.168 56.6143 35.0513 56.073 34.818C55.541 34.5753 55.093 34.2347 54.729 33.796ZM66.2856 35.168C65.651 35.168 65.1003 35.0373 64.6336 34.776C64.167 34.5147 63.803 34.146 63.5416 33.67C63.2803 33.194 63.089 32.6573 62.9676 32.06C62.8463 31.4627 62.7856 30.7907 62.7856 30.044C62.7856 29.2973 62.8463 28.63 62.9676 28.042C63.089 27.4447 63.2803 26.9127 63.5416 26.446C63.803 25.97 64.167 25.6013 64.6336 25.34C65.1003 25.0787 65.651 24.948 66.2856 24.948C68.619 24.948 69.7856 26.6467 69.7856 30.044C69.7856 33.46 68.619 35.168 66.2856 35.168ZM64.2136 30.044C64.2136 32.6107 64.9043 33.894 66.2856 33.894C67.667 33.894 68.3576 32.6107 68.3576 30.044C68.3576 27.496 67.667 26.222 66.2856 26.222C64.9043 26.222 64.2136 27.496 64.2136 30.044ZM74.9946 35.168C74.36 35.168 73.8093 35.0373 73.3426 34.776C72.876 34.5147 72.512 34.146 72.2506 33.67C71.9893 33.194 71.798 32.6573 71.6766 32.06C71.5553 31.4627 71.4946 30.7907 71.4946 30.044C71.4946 29.2973 71.5553 28.63 71.6766 28.042C71.798 27.4447 71.9893 26.9127 72.2506 26.446C72.512 25.97 72.876 25.6013 73.3426 25.34C73.8093 25.0787 74.36 24.948 74.9946 24.948C77.328 24.948 78.4946 26.6467 78.4946 30.044C78.4946 33.46 77.328 35.168 74.9946 35.168ZM72.9226 30.044C72.9226 32.6107 73.6133 33.894 74.9946 33.894C76.376 33.894 77.0666 32.6107 77.0666 30.044C77.0666 27.496 76.376 26.222 74.9946 26.222C73.6133 26.222 72.9226 27.496 72.9226 30.044Z" fill="#C1C2C3"/>
</g>
<defs>
<filter id="filter0_i_963_19933" x="0" y="0" width="229" height="60" filterUnits="userSpaceOnUse" color-interpolation-filters="sRGB">
<feFlood flood-opacity="0" result="BackgroundImageFix"/>
<feBlend mode="normal" in="SourceGraphic" in2="BackgroundImageFix" result="shape"/>
<feColorMatrix in="SourceAlpha" type="matrix" values="0 0 0 0 0 0 0 0 0 0 0 0 0 0 0 0 0 0 127 0" result="hardAlpha"/>
<feOffset dy="-1"/>
<feComposite in2="hardAlpha" operator="arithmetic" k2="-1" k3="1"/>
<feColorMatrix type="matrix" values="0 0 0 0 0.2 0 0 0 0 0.278431 0 0 0 0 0.32549 0 0 0 1 0"/>
<feBlend mode="normal" in2="shape" result="effect1_innerShadow_963_19933"/>
</filter>
</defs>
</svg>
