<svg width="48" height="53" viewBox="0 0 48 53" fill="none" xmlns="http://www.w3.org/2000/svg">
<mask id="path-1-inside-1_1368_30242" fill="white">
<path d="M0 0H48V53H0V0Z"/>
</mask>
<path d="M0 0H48V53H0V0Z" fill="#020E1A"/>
<path d="M30 34.2C30 33.6 32 32.4 32 31.1C32 29.6 30.6 28.4 28.9 27.9C29.6 27.1 30 26.2 30 25.1C30 22.3 27.1 20 23.4 20C19.9 20 16 22.1 16 25.1C16 27.2 17.6 28.7 18.3 29.3C18.2 30.5 17.7 31 17.7 31L16.5 32H18C19.6 32 20.9 31.5 21.7 30.9C21.7 31 21.7 31 21.7 31.1C21.7 33.1 23.9 34.7 26.7 34.7C26.9 34.7 27.1 34.7 27.3 34.7C27.7 35.2 29 36.1 30.7 36.1C30.8 36 30 35.6 30 34.2ZM23.4 21C26.5 21 29 22.9 29 25.1C29 27.3 26.4 29.2 23.2 29.2C23 29.2 22.6 29.2 22.4 29.2H22.1L22 29.4C21.7 29.8 20.5 30.6 18.9 30.9C19 30.5 19 29.9 19 29.1V28.8C18 28 16.9 26.6 16.9 25.2C16.9 23 20.1 21 23.4 21Z" fill="#205E7B"/>
<path d="M0 2H48V-2H0V2Z" fill="#03A9F4" mask="url(#path-1-inside-1_1368_30242)"/>
</svg>
