<svg width="24" height="24" viewBox="0 0 24 24" fill="none" xmlns="http://www.w3.org/2000/svg">
<g id="E-mail">
<path id="Ellipse 54" d="M21.0007 12C21.0007 10.1195 20.4117 8.28625 19.3164 6.7577C18.221 5.22915 16.6744 4.08209 14.8937 3.47763C13.113 2.87316 11.1877 2.84166 9.38817 3.38754C7.58865 3.93341 6.00532 5.02925 4.86055 6.52115C3.71578 8.01304 3.06708 9.82604 3.00555 11.7055C2.94402 13.585 3.47276 15.4366 4.51751 17.0001C5.56225 18.5637 7.07052 19.7608 8.83048 20.4232C10.5904 21.0856 12.5137 21.18 14.3301 20.6933" stroke="#FDFEFF" stroke-width="2" stroke-linecap="round"/>
<circle id="Ellipse 55" cx="12.0007" cy="12" r="4" stroke="#FDFEFF" stroke-width="2"/>
<path id="Vector 97" d="M16.0007 9V13.5C16.0007 14.8807 17.12 16 18.5007 16V16C19.8814 16 21.0007 14.8807 21.0007 13.5V12" stroke="#FDFEFF" stroke-width="2" stroke-linecap="round"/>
</g>
</svg>
