<svg width="161" height="49" viewBox="0 0 161 49" fill="none" xmlns="http://www.w3.org/2000/svg">
<rect width="161" height="49" rx="10" fill="#03A9F4"/>
<path d="M36.916 28.56L38.388 26.432C38.7507 26.752 39.1827 27.0293 39.684 27.264C40.1853 27.4987 40.6707 27.616 41.14 27.616C41.5133 27.616 41.8013 27.5413 42.004 27.392C42.2173 27.2427 42.324 27.0507 42.324 26.816C42.324 26.5707 42.196 26.3467 41.94 26.144C41.6947 25.9307 41.3853 25.7547 41.012 25.616C40.6387 25.4773 40.2333 25.3013 39.796 25.088C39.3587 24.864 38.9533 24.6293 38.58 24.384C38.2067 24.1387 37.892 23.8027 37.636 23.376C37.3907 22.9387 37.268 22.4373 37.268 21.872C37.268 20.8267 37.652 19.984 38.42 19.344C39.1987 18.6933 40.196 18.368 41.412 18.368C42.8307 18.368 44.0253 18.8 44.996 19.664L43.812 21.952C43.4813 21.664 43.0867 21.424 42.628 21.232C42.1693 21.04 41.7213 20.944 41.284 20.944C40.8787 20.944 40.5747 21.0187 40.372 21.168C40.1693 21.3173 40.068 21.5147 40.068 21.76C40.068 22.0053 40.1907 22.2293 40.436 22.432C40.692 22.6347 41.0067 22.8053 41.38 22.944C41.7533 23.072 42.1587 23.2427 42.596 23.456C43.0333 23.6587 43.4387 23.8827 43.812 24.128C44.1853 24.3627 44.4947 24.6987 44.74 25.136C44.996 25.5627 45.124 26.0587 45.124 26.624C45.124 27.6373 44.7613 28.4853 44.036 29.168C43.3213 29.8507 42.3293 30.192 41.06 30.192C40.292 30.192 39.54 30.0533 38.804 29.776C38.0787 29.4987 37.4493 29.0933 36.916 28.56ZM46.7751 25.792V18.56H49.5751V25.792C49.5751 26.3787 49.7511 26.832 50.1031 27.152C50.4658 27.472 50.9511 27.632 51.5591 27.632C52.1671 27.632 52.6471 27.472 52.9991 27.152C53.3618 26.832 53.5431 26.3787 53.5431 25.792V18.56H56.3431V25.792C56.3431 27.0933 55.9058 28.1547 55.0311 28.976C54.1565 29.7867 53.0045 30.192 51.5751 30.192C50.1351 30.192 48.9725 29.7867 48.0871 28.976C47.2125 28.1547 46.7751 27.0933 46.7751 25.792ZM58.6219 30V18.56H62.8299C64.0032 18.56 64.9419 18.8213 65.6459 19.344C66.3605 19.856 66.7179 20.592 66.7179 21.552C66.7179 22.0427 66.6005 22.512 66.3659 22.96C66.1312 23.3973 65.8059 23.7387 65.3899 23.984V24.016C65.9979 24.1973 66.4459 24.5333 66.7339 25.024C67.0325 25.504 67.1819 26.0267 67.1819 26.592C67.1819 27.7547 66.7712 28.6133 65.9499 29.168C65.1285 29.7227 64.0885 30 62.8299 30H58.6219ZM61.4219 22.992H62.8619C63.1925 22.992 63.4432 22.8907 63.6139 22.688C63.7845 22.4853 63.8699 22.2347 63.8699 21.936C63.8699 21.648 63.7792 21.4133 63.5979 21.232C63.4272 21.0507 63.1659 20.96 62.8139 20.96H61.4219V22.992ZM61.4219 27.6H63.1019C63.4859 27.6 63.7845 27.488 63.9979 27.264C64.2112 27.0293 64.3179 26.7413 64.3179 26.4C64.3179 26.0587 64.2165 25.7813 64.0139 25.568C63.8112 25.344 63.5125 25.232 63.1179 25.232H61.4219V27.6ZM68.1973 28.56L69.6693 26.432C70.0319 26.752 70.4639 27.0293 70.9653 27.264C71.4666 27.4987 71.9519 27.616 72.4213 27.616C72.7946 27.616 73.0826 27.5413 73.2853 27.392C73.4986 27.2427 73.6053 27.0507 73.6053 26.816C73.6053 26.5707 73.4773 26.3467 73.2213 26.144C72.9759 25.9307 72.6666 25.7547 72.2933 25.616C71.9199 25.4773 71.5146 25.3013 71.0773 25.088C70.6399 24.864 70.2346 24.6293 69.8613 24.384C69.4879 24.1387 69.1733 23.8027 68.9173 23.376C68.6719 22.9387 68.5493 22.4373 68.5493 21.872C68.5493 20.8267 68.9333 19.984 69.7013 19.344C70.4799 18.6933 71.4773 18.368 72.6933 18.368C74.1119 18.368 75.3066 18.8 76.2773 19.664L75.0933 21.952C74.7626 21.664 74.3679 21.424 73.9093 21.232C73.4506 21.04 73.0026 20.944 72.5653 20.944C72.1599 20.944 71.8559 21.0187 71.6533 21.168C71.4506 21.3173 71.3493 21.5147 71.3493 21.76C71.3493 22.0053 71.4719 22.2293 71.7173 22.432C71.9733 22.6347 72.2879 22.8053 72.6613 22.944C73.0346 23.072 73.4399 23.2427 73.8773 23.456C74.3146 23.6587 74.7199 23.8827 75.0933 24.128C75.4666 24.3627 75.7759 24.6987 76.0213 25.136C76.2773 25.5627 76.4053 26.0587 76.4053 26.624C76.4053 27.6373 76.0426 28.4853 75.3173 29.168C74.6026 29.8507 73.6106 30.192 72.3413 30.192C71.5733 30.192 70.8213 30.0533 70.0853 29.776C69.3599 29.4987 68.7306 29.0933 68.1973 28.56ZM77.5764 24.256C77.5764 22.5707 78.1364 21.168 79.2564 20.048C80.387 18.928 81.827 18.368 83.5764 18.368C84.3764 18.368 85.155 18.5067 85.9124 18.784C86.6697 19.0507 87.3204 19.4507 87.8644 19.984L86.5684 22.096C86.1844 21.7547 85.731 21.4773 85.2084 21.264C84.6964 21.04 84.195 20.928 83.7044 20.928C82.6377 20.928 81.8324 21.248 81.2884 21.888C80.7444 22.5173 80.4724 23.2853 80.4724 24.192C80.4724 25.12 80.7497 25.9253 81.3044 26.608C81.8697 27.2907 82.6697 27.632 83.7044 27.632C84.7924 27.632 85.8057 27.1627 86.7444 26.224L88.1844 28.272C86.947 29.552 85.411 30.192 83.5764 30.192C81.763 30.192 80.307 29.6373 79.2084 28.528C78.1204 27.408 77.5764 25.984 77.5764 24.256ZM89.6063 30V18.56H93.5903C94.6036 18.56 95.3449 18.6507 95.8143 18.832C96.4756 19.088 96.9929 19.504 97.3663 20.08C97.7396 20.6453 97.9263 21.3387 97.9263 22.16C97.9263 22.8 97.7769 23.4133 97.4783 24C97.1796 24.576 96.7583 25.0027 96.2143 25.28V25.312C96.3209 25.4507 96.4649 25.68 96.6463 26L98.8703 30H95.7503L93.7183 26.144H92.4062V30H89.6063ZM92.4062 23.744H93.6223C94.0809 23.744 94.4383 23.6213 94.6943 23.376C94.9503 23.1307 95.0783 22.784 95.0783 22.336C95.0783 21.7067 94.8543 21.3013 94.4063 21.12C94.1609 21.0133 93.8089 20.96 93.3503 20.96H92.4062V23.744ZM100.138 30V18.56H102.938V30H100.138ZM105.341 30V18.56H109.549C110.722 18.56 111.661 18.8213 112.365 19.344C113.079 19.856 113.437 20.592 113.437 21.552C113.437 22.0427 113.319 22.512 113.085 22.96C112.85 23.3973 112.525 23.7387 112.109 23.984V24.016C112.717 24.1973 113.165 24.5333 113.453 25.024C113.751 25.504 113.901 26.0267 113.901 26.592C113.901 27.7547 113.49 28.6133 112.669 29.168C111.847 29.7227 110.807 30 109.549 30H105.341ZM108.141 22.992H109.581C109.911 22.992 110.162 22.8907 110.333 22.688C110.503 22.4853 110.589 22.2347 110.589 21.936C110.589 21.648 110.498 21.4133 110.317 21.232C110.146 21.0507 109.885 20.96 109.533 20.96H108.141V22.992ZM108.141 27.6H109.821C110.205 27.6 110.503 27.488 110.717 27.264C110.93 27.0293 111.037 26.7413 111.037 26.4C111.037 26.0587 110.935 25.7813 110.733 25.568C110.53 25.344 110.231 25.232 109.837 25.232H108.141V27.6ZM115.7 30V18.56H122.868V20.96H118.5V23.04H121.988V25.44H118.5V27.6H123.092V30H115.7Z" fill="#FDFEFF"/>
</svg>
