<svg width="60" height="40" viewBox="0 0 60 40" fill="none" xmlns="http://www.w3.org/2000/svg">
<path d="M0 0H58C59.1046 0 60 0.895431 60 2V38C60 39.1046 59.1046 40 58 40H0V0Z" fill="#173A4F"/>
<path d="M22.3385 13.6124L24.6795 19.2308C24.8376 19.6103 24.9167 19.8 24.9167 20C24.9167 20.2 24.8376 20.3897 24.6795 20.7692L22.3385 26.3876C21.3734 28.7038 20.8909 29.8619 21.4385 30.3351C21.9862 30.8083 23.062 30.1628 25.2137 28.8718L37.1417 21.715C38.4181 20.9491 39.0563 20.5662 39.0563 20C39.0563 19.4338 38.4181 19.0509 37.1417 18.285L25.2136 11.1282C23.062 9.83721 21.9862 9.19172 21.4385 9.66491C20.8909 10.1381 21.3734 11.2962 22.3385 13.6124Z" fill="#FDFEFF" stroke="#FDFEFF" stroke-width="1.2"/>
</svg>
