<svg width="40" height="24" viewBox="0 0 40 24" fill="none" xmlns="http://www.w3.org/2000/svg">
<g id="Frame 58">
<path id="Subtract" fill-rule="evenodd" clip-rule="evenodd" d="M3 0C1.89543 0 1 0.89543 1 2V22C1 23.1046 1.89543 24 3 24H37.4C38.5046 24 39.4 23.1046 39.4 22V2C39.4 0.895431 38.5046 0 37.4 0H3ZM5.58003 7.09082C5.56164 7.09114 5.5446 7.09143 5.52904 7.09152L2.2 7.09155V16.9097H5.41692V11.1194H5.63264L7.42591 16.9097H9.84623L11.6395 11.1237H11.8552V16.9097H15.0721V7.09155L11.9159 7.09155C11.8914 7.09155 11.8648 7.09118 11.8361 7.09079C11.3866 7.08462 10.4596 7.07189 10.075 8.36996C9.83596 9.17671 9.39678 10.6845 8.75746 12.8932H8.51468C7.91853 10.7982 7.48409 9.29041 7.21136 8.36996C6.82608 7.06962 5.94185 7.08467 5.58003 7.09082ZM19.6916 12.8819V7.09155H16.4075V16.9097H19.5205C19.5205 16.9097 20.4657 16.824 20.8892 15.8807L23.0278 11.1194H23.2844V16.9097H26.5685V7.09155H23.4555C23.4555 7.09155 22.553 7.17301 22.1296 8.12053L19.9482 12.8819H19.6916ZM34.4304 13.985C36.0231 13.985 37.4617 13.0554 37.9198 11.7572H27.8634V16.9097H30.9863V13.985H34.4304ZM27.6996 7.09154H34.581C37.2288 7.09154 38.5086 9.33193 38.1368 11.1486H31.6945C29.7458 11.1486 27.8634 9.2774 27.6996 7.09154Z" fill="#C1C2C3"/>
</g>
</svg>
