<svg width="730" height="180" viewBox="0 0 730 180" fill="none" xmlns="http://www.w3.org/2000/svg">
<g opacity="0.26">
<rect y="67" width="26" height="46" rx="4" fill="#173A4F"/>
<rect x="44" y="40" width="26" height="100" rx="4" fill="#173A4F"/>
<rect x="88" y="67" width="26" height="46" rx="4" fill="#173A4F"/>
<rect x="132" y="27" width="26" height="126" rx="4" fill="#205E7B"/>
<rect x="176" y="52" width="26" height="76" rx="4" fill="#173A4F"/>
<rect x="220" y="77" width="26" height="26" rx="4" fill="#205E7B"/>
<rect x="264" y="40" width="26" height="100" rx="4" fill="#173A4F"/>
<rect x="308" y="67" width="26" height="46" rx="4" fill="#173A4F"/>
<rect x="352" y="40" width="26" height="100" rx="4" fill="#173A4F"/>
<rect x="396" y="67" width="26" height="46" rx="4" fill="#173A4F"/>
<rect x="440" y="27" width="26" height="126" rx="4" fill="#173A4F"/>
<rect x="484" y="52" width="26" height="76" rx="4" fill="#03A9F4"/>
<rect x="528" y="77" width="26" height="26" rx="4" fill="#17BDFF"/>
<rect x="572" y="40" width="26" height="100" rx="4" fill="#173A4F"/>
<rect x="616" y="52" width="26" height="76" rx="4" fill="#173A4F"/>
<rect x="660" y="77" width="26" height="26" rx="4" fill="#173A4F"/>
<rect x="704" y="67" width="26" height="46" rx="4" fill="#173A4F"/>
</g>
</svg>
