<svg width="39" height="24" viewBox="0 0 39 24" fill="none" xmlns="http://www.w3.org/2000/svg">
<g id="Frame 57">
<g id="Vector">
<path d="M17.4667 9.81818C17.4672 10.7371 17.6932 11.6455 18.1298 12.484C18.5663 13.3225 19.2037 14.0721 20 14.6836C21.5504 13.4836 22.5333 11.7502 22.5333 9.81818C22.5333 7.88618 21.5504 6.15273 20 4.95273C19.2037 5.56431 18.5663 6.31389 18.1298 7.15236C17.6932 7.99083 17.4672 8.89927 17.4667 9.81818ZM26.8273 19.0473C26.3929 19.0473 26.1281 19.3353 26.1281 19.6844C26.1281 20.0335 26.3941 20.3204 26.8273 20.3204C27.2428 20.3204 27.5227 20.0455 27.5227 19.6844C27.5227 19.3222 27.2428 19.0484 26.8273 19.0484V19.0473ZM20.0608 19.0276C19.7036 19.0276 19.5009 19.2229 19.4477 19.5098H20.6447C20.5915 19.2022 20.3838 19.0276 20.0608 19.0276ZM12.666 19.0473C12.2328 19.0473 11.9668 19.3353 11.9668 19.6844C11.9668 20.0335 12.2328 20.3204 12.6673 20.3204C13.0815 20.3204 13.3614 20.0455 13.3614 19.6844C13.3614 19.3222 13.0827 19.0484 12.6673 19.0484L12.666 19.0473Z" fill="#C1C2C3"/>
<path d="M36.4667 0H3.53333C2.1362 0 1 0.978545 1 2.18182V21.8182C1 23.0215 2.1362 24 3.53333 24H36.4667C37.8638 24 39 23.0215 39 21.8182V2.18182C39 0.978545 37.8638 0 36.4667 0ZM11.0067 20.6771H10.5V19.572C10.5 19.2349 10.3353 19.0484 9.99333 19.0484C9.6602 19.0484 9.4284 19.2305 9.4284 19.5764V20.6782H8.92173V19.5709C8.92173 19.2338 8.75327 19.0473 8.42013 19.0473C8.07813 19.0473 7.8552 19.2295 7.8552 19.5753V20.6771H7.34853V18.6895H7.85013V18.9349C7.92328 18.8393 8.02418 18.7618 8.14283 18.7101C8.26148 18.6585 8.39376 18.6344 8.52653 18.6404C8.87867 18.6404 9.12947 18.7724 9.28907 18.9927C9.5006 18.7145 9.8046 18.6349 10.0997 18.6393C10.6596 18.6436 11.0067 18.96 11.0067 19.4291V20.6771ZM13.8351 19.6844V20.6771H13.3335V20.4371C13.2476 20.5324 13.1364 20.6084 13.0092 20.6589C12.882 20.7094 12.7426 20.7329 12.6027 20.7273C11.9567 20.7273 11.45 20.2909 11.45 19.6844C11.45 19.0767 11.9567 18.6404 12.6027 18.6404C12.932 18.6404 13.1727 18.7527 13.3323 18.9316V18.6905H13.8339V19.6833L13.8351 19.6844ZM15.3209 20.7273C14.9447 20.7273 14.5977 20.6444 14.3228 20.4698L14.5584 20.1327C14.78 20.274 15.0504 20.3471 15.326 20.34C15.668 20.34 15.8529 20.2527 15.8529 20.1C15.8529 19.9876 15.7225 19.9255 15.4476 19.8927L15.2107 19.8622C14.6939 19.8 14.414 19.6004 14.414 19.2764C14.414 18.8815 14.7902 18.6404 15.3741 18.6404C15.7415 18.6404 16.0746 18.7113 16.3153 18.8476L16.0987 19.1967C15.8794 19.0886 15.6318 19.0305 15.3792 19.0276C15.1043 19.0276 14.9397 19.1149 14.9397 19.26C14.9397 19.3931 15.1145 19.4302 15.3323 19.4553L15.5679 19.4847C16.0695 19.5469 16.3735 19.7291 16.3735 20.0793C16.3735 20.4567 15.9872 20.7273 15.3222 20.7273H15.3209ZM17.9809 20.7273C17.3869 20.7273 17.1791 20.4524 17.1791 19.992V19.0855H16.7105V18.6905H17.1791V18.0873H17.6858V18.6905H18.5066V19.0855H17.6871V19.9833C17.6871 20.1829 17.7681 20.316 18.0189 20.316C18.1758 20.3116 18.3288 20.2729 18.4635 20.2036L18.6079 20.5735C18.4199 20.6745 18.2026 20.7278 17.9809 20.7273ZM21.1565 19.8502H19.4427C19.5161 20.208 19.81 20.3367 20.133 20.3367C20.3773 20.3338 20.6135 20.2609 20.8043 20.1295L21.0501 20.4491C20.7854 20.6385 20.4491 20.7376 20.1051 20.7273C19.4148 20.7273 18.9221 20.316 18.9221 19.6844C18.9221 19.0647 19.3945 18.6404 20.0709 18.6404C20.7169 18.6404 21.1615 19.0647 21.1666 19.6844C21.1666 19.7422 21.1615 19.7956 21.1565 19.8502ZM22.9906 19.1018C22.8907 19.0675 22.784 19.0504 22.6765 19.0516C22.3484 19.0516 22.185 19.2349 22.185 19.5633V20.6771H21.6821V18.6905H22.1799V18.9305C22.2416 18.8396 22.3306 18.7646 22.4376 18.7135C22.5446 18.6624 22.6657 18.6372 22.7879 18.6404C22.8893 18.6404 23.0337 18.6567 23.1451 18.6949L22.9906 19.1018ZM24.5106 20.3204C24.7291 20.3184 24.9411 20.2556 25.1148 20.1415L25.3555 20.4905C25.1229 20.6558 24.827 20.7403 24.5258 20.7273C23.7823 20.7273 23.2946 20.2865 23.2946 19.6844C23.2946 19.0811 23.7823 18.6404 24.5258 18.6404C24.8729 18.6404 25.1047 18.7069 25.3555 18.8771L25.1148 19.2262C24.9409 19.1124 24.729 19.05 24.5106 19.0484C24.1103 19.0516 23.8165 19.3015 23.8165 19.6844C23.8165 20.0662 24.1103 20.316 24.5106 20.3204ZM27.9952 20.6771H27.4936V20.4371C27.4079 20.532 27.297 20.6078 27.1703 20.6583C27.0436 20.7088 26.9047 20.7324 26.7653 20.7273C26.1193 20.7273 25.6126 20.2909 25.6126 19.6844C25.6126 19.0767 26.1193 18.6404 26.7653 18.6404C26.9049 18.6352 27.0438 18.659 27.1706 18.7097C27.2973 18.7604 27.4081 18.8365 27.4936 18.9316V18.6905H27.9952V20.6771ZM29.9649 19.1018C29.865 19.0675 29.7583 19.0504 29.6507 19.0516C29.3227 19.0516 29.1593 19.2349 29.1593 19.5633V20.6771H28.6564V18.6905H29.1542V18.9305C29.2159 18.8396 29.3049 18.7646 29.4119 18.7135C29.5189 18.6624 29.6399 18.6372 29.7622 18.6404C29.8635 18.6404 30.0079 18.6567 30.1194 18.6949L29.9649 19.1018ZM32.6527 20.6771H32.1511V20.4371C32.0655 20.532 31.9546 20.6079 31.8279 20.6584C31.7012 20.7089 31.5623 20.7325 31.4228 20.7273C30.7768 20.7273 30.2701 20.2909 30.2701 19.6844C30.2701 19.0767 30.7768 18.6404 31.4228 18.6404C31.5624 18.6352 31.7014 18.659 31.8281 18.7097C31.9548 18.7604 32.0656 18.8365 32.1511 18.9316V17.8909H32.6527V20.6771ZM25.0667 16.3636C23.1946 16.3694 21.3876 15.7726 20 14.6902C18.6124 15.7726 16.8054 16.3694 14.9333 16.3636C10.7419 16.3636 7.33333 13.428 7.33333 9.81818C7.33333 6.20836 10.7419 3.27273 14.9333 3.27273C16.8283 3.27273 18.6041 3.86291 20 4.94618C21.3876 3.86381 23.1946 3.26697 25.0667 3.27273C29.2581 3.27273 32.6667 6.20836 32.6667 9.81818C32.6667 13.428 29.2581 16.3636 25.0667 16.3636Z" fill="#C1C2C3"/>
<path d="M31.4849 19.0473C31.0504 19.0473 30.7857 19.3353 30.7857 19.6844C30.7857 20.0335 31.0517 20.3204 31.4849 20.3204C31.9003 20.3204 32.1803 20.0455 32.1803 19.6844C32.1803 19.3222 31.9003 19.0484 31.4849 19.0484V19.0473Z" fill="#C1C2C3"/>
</g>
</g>
</svg>
