<svg width="39" height="24" viewBox="0 0 39 24" fill="none" xmlns="http://www.w3.org/2000/svg">
<g id="Frame 56">
<g id="Vector">
<path d="M2 0C0.89543 0 0 0.895431 0 2V22C0 23.1046 0.895431 24 2 24H37C38.1046 24 39 23.1046 39 22V2C39 0.89543 38.1046 0 37 0H2ZM10.092 16.0029L9.19474 9.53759L11.3723 10.9128L7.70719 7.99702H11.2298L11.5862 11.7999C11.631 12.2516 11.6671 12.6952 11.7012 13.1516C11.8844 12.7147 12.0976 12.2369 12.3444 11.7099L14.0894 7.99702H16.406L12.2977 16.0028L10.092 16.0029ZM15.9138 16.0029L17.4268 7.99711H19.5L17.989 16.0029H15.9138ZM21.4923 16.1165C20.5463 16.1165 19.6912 15.898 19.2058 15.5317L19.0634 15.4228L19.7641 13.6854L19.9988 13.8265C20.4695 14.1095 21.0705 14.2749 21.6481 14.2749C22.0894 14.2749 22.6075 14.1028 22.6075 13.6229C22.6075 13.3722 22.4624 13.1517 21.721 12.7666C20.9347 12.3397 20.0368 11.7039 20.0368 10.558C20.0368 8.97911 21.3499 7.87547 23.2292 7.87547C23.9981 7.87547 24.6138 8.01058 25.1085 8.28478L25.2837 8.38161L24.6212 10.1661L24.3845 10.0357C24.2922 9.98394 23.7915 9.72917 23.1423 9.72917C22.4751 9.72917 22.1916 10.0209 22.1916 10.2904C22.1916 10.5794 22.5587 10.8086 23.1657 11.1493C24.2454 11.7193 24.7722 12.4385 24.7722 13.3452C24.7723 15.0028 23.4553 16.1165 21.4923 16.1165ZM29.6154 16.0029L29.4603 14.0477H27.6639L26.7728 16.0029H24.5505L28.4268 7.99711H30.8362L31.7695 16.0029H29.6154Z" fill="#C1C2C3"/>
<path d="M29.1888 10.4591C29.1059 10.6735 29.021 10.8771 28.9375 11.0572L28.3451 12.3511H29.3533L29.2289 10.9819C29.2189 10.8274 29.2042 10.6493 29.1888 10.4591Z" fill="#C1C2C3"/>
</g>
</g>
</svg>
