<svg width="24" height="24" viewBox="0 0 24 24" fill="none" xmlns="http://www.w3.org/2000/svg">
<g id="Icon">
<path id="Union" fill-rule="evenodd" clip-rule="evenodd" d="M18.7263 6.70816C19.1166 6.31739 19.1166 5.68384 18.7263 5.29307C18.336 4.90231 17.7032 4.90231 17.3129 5.29307L12.0095 10.6031L6.70605 5.2931C6.31577 4.90233 5.683 4.90233 5.29271 5.2931C4.90243 5.68386 4.90243 6.31742 5.29271 6.70818L10.5961 12.0182L5.29271 17.3281C4.90243 17.7189 4.90243 18.3525 5.29271 18.7432C5.683 19.134 6.31577 19.134 6.70605 18.7432L12.0095 13.4333L17.3129 18.7433C17.7032 19.134 18.336 19.134 18.7263 18.7433C19.1166 18.3525 19.1166 17.7189 18.7263 17.3282L13.4228 12.0182L18.7263 6.70816Z" fill="#334753"/>
</g>
</svg>
