<svg width="24" height="24" viewBox="0 0 24 24" fill="none" xmlns="http://www.w3.org/2000/svg">
<path fill-rule="evenodd" clip-rule="evenodd" d="M1.00483 12.3078C1.00483 12.2936 1.00483 12.2795 1.00483 12.2657C1.00379 12.2795 1.00448 12.2936 1.00483 12.3078Z" fill="#B43737"/>
<path fill-rule="evenodd" clip-rule="evenodd" d="M1.01241 11.4912C1.01241 11.4695 1.01241 11.4481 1.01517 11.4264C1.01379 11.4484 1.01345 11.4695 1.01241 11.4912Z" fill="#B43737"/>
<path fill-rule="evenodd" clip-rule="evenodd" d="M1 11.9798V12.0002C1 12.0136 1 12.0271 1 12.0405C1 12.0202 1 12.0002 1 11.9798Z" fill="#B43737"/>
<path fill-rule="evenodd" clip-rule="evenodd" d="M8.57115 17.9254C8.01425 17.9254 7.04837 17.4285 6.50216 17.204C6.69499 17.6212 7.00553 17.9728 7.39557 18.2158C7.78562 18.4588 8.23817 18.5825 8.69757 18.5717C9.15698 18.5609 9.60321 18.416 9.98141 18.155C10.3596 17.894 10.6533 17.5281 10.8263 17.1024C10.9993 16.6766 11.0441 16.2096 10.9553 15.7588C10.8664 15.3079 10.6477 14.8929 10.3261 14.5646C10.0045 14.2364 9.59396 14.0093 9.145 13.9113C8.69604 13.8133 8.22822 13.8486 7.79907 14.013C8.87771 14.4685 10.3164 14.7068 10.3164 16.1792C10.3164 16.6422 10.1325 17.0862 9.80526 17.4136C9.478 17.7411 9.0341 17.9252 8.57115 17.9254Z" fill="#B43737"/>
<path fill-rule="evenodd" clip-rule="evenodd" d="M12.0002 1C6.20974 1 1.46449 5.47386 1.03241 11.1536L6.8063 13.5926C7.34457 13.2143 7.98668 13.0117 8.6446 13.0126C8.71633 13.0126 8.78736 13.0154 8.85805 13.0198L11.4646 9.20047C11.4647 8.37087 11.7108 7.55992 12.1717 6.87016C12.6327 6.18041 13.2879 5.64284 14.0543 5.32543C14.8208 5.00802 15.6642 4.92502 16.4778 5.08693C17.2915 5.24885 18.0389 5.6484 18.6254 6.23507C19.212 6.82173 19.6114 7.56916 19.7732 8.38284C19.935 9.19652 19.8519 10.0399 19.5343 10.8063C19.2168 11.5727 18.6791 12.2278 17.9893 12.6886C17.2994 13.1495 16.4885 13.3954 15.6588 13.3954C15.6268 13.3954 15.5947 13.3954 15.5626 13.3954L11.8422 16.0395C11.8453 16.0978 11.8474 16.1564 11.8474 16.2154C11.8478 17.0153 11.5489 17.7865 11.0094 18.3771C10.47 18.9678 9.729 19.3351 8.93231 19.407C8.13561 19.4789 7.34087 19.25 6.70441 18.7654C6.06796 18.2808 5.63588 17.5756 5.49317 16.7885L1.45035 15.1216C2.79589 19.6762 7.00941 23.0003 12.0002 23.0003C18.0754 23.0003 23.0003 18.0754 23.0003 12.0002C23.0003 5.92491 18.0754 1 12.0002 1Z" fill="#B43737"/>
<path fill-rule="evenodd" clip-rule="evenodd" d="M1.29931 14.5561C1.29069 14.5216 1.28207 14.4837 1.2738 14.4475C1.28207 14.483 1.29069 14.5199 1.29931 14.5561Z" fill="#B43737"/>
<path fill-rule="evenodd" clip-rule="evenodd" d="M18.4465 9.1884C18.4465 8.6395 18.2837 8.10293 17.9787 7.64654C17.6738 7.19015 17.2403 6.83445 16.7332 6.62441C16.2261 6.41437 15.6681 6.35943 15.1297 6.46654C14.5914 6.57365 14.0969 6.838 13.7088 7.22615C13.3207 7.61431 13.0564 8.10884 12.9493 8.6472C12.8423 9.18556 12.8973 9.74357 13.1074 10.2507C13.3175 10.7578 13.6733 11.1912 14.1297 11.4961C14.5861 11.801 15.1227 11.9637 15.6716 11.9636C16.4076 11.9635 17.1134 11.6711 17.6338 11.1507C18.1541 10.6302 18.4465 9.92438 18.4465 9.1884ZM13.5519 9.1884C13.5519 8.76917 13.6762 8.35935 13.9092 8.01077C14.1421 7.66219 14.4731 7.3905 14.8604 7.23007C15.2478 7.06963 15.674 7.02766 16.0851 7.10945C16.4963 7.19123 16.874 7.39311 17.1705 7.68956C17.4669 7.986 17.6688 8.36369 17.7506 8.77487C17.8324 9.18605 17.7904 9.61225 17.6299 9.99957C17.4695 10.3869 17.1978 10.7179 16.8492 10.9509C16.5007 11.1838 16.0908 11.3081 15.6716 11.3081C15.1094 11.3081 14.5703 11.0848 14.1728 10.6872C13.7752 10.2897 13.5519 9.75058 13.5519 9.1884Z" fill="#B43737"/>
<path fill-rule="evenodd" clip-rule="evenodd" d="M1.36242 14.8081C1.35311 14.7737 1.34345 14.7361 1.33449 14.6999C1.34483 14.7361 1.35311 14.7719 1.36242 14.8081Z" fill="#B43737"/>
</svg>
