<svg width="24" height="24" viewBox="0 0 24 24" fill="none" xmlns="http://www.w3.org/2000/svg">
<g id="Icon">
<path id="Union" fill-rule="evenodd" clip-rule="evenodd" d="M3 11C3 6.67822 6.92772 3 12 3C17.0723 3 21 6.67822 21 11C21 13.3361 19.5757 15.504 17.577 17.3229C16.1104 18.6575 14.4184 19.7252 13 20.4451V19.5C13 18.9477 12.5523 18.5 12 18.5C9.75582 18.5 7.47803 17.5967 5.76518 16.1693C4.0471 14.7375 3 12.8717 3 11ZM12 1C6.02658 1 1 5.38065 1 11C1 13.6283 2.4529 16.0125 4.48482 17.7057C6.27491 19.1975 8.59398 20.2252 11 20.4525V22C11 22.3318 11.1646 22.642 11.4394 22.8281C11.7141 23.0141 12.0633 23.0517 12.3714 22.9285C14.1311 22.2246 16.738 20.7905 18.923 18.8021C21.091 16.8293 23 14.1639 23 11C23 5.38065 17.9734 1 12 1ZM7.5 12.5C8.32843 12.5 9 11.8284 9 11C9 10.1716 8.32843 9.5 7.5 9.5C6.67157 9.5 6 10.1716 6 11C6 11.8284 6.67157 12.5 7.5 12.5ZM12 12.5C12.8284 12.5 13.5 11.8284 13.5 11C13.5 10.1716 12.8284 9.5 12 9.5C11.1716 9.5 10.5 10.1716 10.5 11C10.5 11.8284 11.1716 12.5 12 12.5ZM18 11C18 11.8284 17.3284 12.5 16.5 12.5C15.6716 12.5 15 11.8284 15 11C15 10.1716 15.6716 9.5 16.5 9.5C17.3284 9.5 18 10.1716 18 11Z" fill="#03A9F4"/>
</g>
</svg>
