<svg width="24" height="24" viewBox="0 0 24 24" fill="none" xmlns="http://www.w3.org/2000/svg">
<g id="Icon">
<path id="Union" fill-rule="evenodd" clip-rule="evenodd" d="M6.67546 14.1943C6.5619 14.2933 6.4167 14.4708 6.27401 14.8127C6.15465 15.0988 5.90936 15.3134 5.60994 15.3936C5.31052 15.4738 4.99082 15.4107 4.74441 15.2226C4.45456 15.0014 4.23976 14.9215 4.08905 14.8927C3.94018 14.8642 3.79356 14.874 3.61971 14.9206C3.02334 15.0804 2.58837 15.708 2.80567 16.519C3.03881 17.3891 3.90357 18.0999 4.99433 18.6151C5.5104 18.8589 6.01618 19.0293 6.40064 19.1346C6.48407 19.1575 6.56023 19.1769 6.62799 19.193C6.67862 19.1451 6.73488 19.0903 6.79571 19.0288C7.07599 18.7453 7.4288 18.3449 7.75386 17.8757C8.44088 16.8842 8.83436 15.8362 8.60122 14.9661C8.38726 14.1676 7.70483 13.8352 7.08343 13.9924C6.91231 14.0357 6.78582 14.0981 6.67546 14.1943ZM5.36127 12.6867C5.75446 12.344 6.18239 12.1573 6.59301 12.0534C8.29857 11.6221 10.0425 12.6176 10.5331 14.4484C11.0045 16.2077 10.1666 17.9052 9.39781 19.0148C8.99496 19.5962 8.56377 20.0852 8.21787 20.435C8.04481 20.61 7.88706 20.7563 7.75811 20.8661C7.6947 20.9202 7.62997 20.9724 7.56849 21.0171C7.53847 21.0389 7.49891 21.0665 7.45399 21.0935C7.4533 21.094 7.45252 21.0944 7.45163 21.095C7.42569 21.1107 7.3167 21.1767 7.17004 21.216C7.02339 21.2553 6.896 21.2526 6.86568 21.252C6.86465 21.2519 6.86373 21.2519 6.86292 21.2519C6.81049 21.2509 6.76245 21.2468 6.72554 21.243C6.64996 21.235 6.56777 21.2221 6.48586 21.207C6.31926 21.1764 6.1095 21.1286 5.87212 21.0635C5.39765 20.9335 4.77974 20.7257 4.14016 20.4236C2.9196 19.8471 1.34522 18.7959 0.873814 17.0366C0.386577 15.2182 1.38021 13.4501 3.10207 12.9887C3.49775 12.8827 3.95581 12.831 4.46446 12.9282C4.6399 12.9617 4.814 13.0116 4.98702 13.078C5.10226 12.9343 5.22686 12.8039 5.36127 12.6867Z" fill="#A02323"/>
<path id="Union_2" fill-rule="evenodd" clip-rule="evenodd" d="M19.6847 19.1562C19.6152 19.1501 19.4857 19.1552 19.2668 19.2392C18.9852 19.3472 18.6698 19.3224 18.4086 19.1716C18.1473 19.0207 17.9681 18.76 17.9209 18.4621C17.8851 18.2363 17.8246 18.1221 17.7827 18.0628C17.7409 18.0038 17.684 17.9515 17.5866 17.8953C17.272 17.7137 16.8926 17.7973 16.6903 18.1476C16.4449 18.5728 16.4933 19.2638 16.8098 20.0844C16.9546 20.4598 17.1309 20.7965 17.277 21.0407C17.2861 21.056 17.295 21.0708 17.3038 21.0851C17.3205 21.0855 17.3378 21.0859 17.3556 21.0861C17.6402 21.0905 18.0199 21.0749 18.4174 21.0126C19.2863 20.8764 19.909 20.5728 20.1544 20.1476C20.3508 19.8075 20.2449 19.436 19.9133 19.2385C19.8204 19.1832 19.7518 19.1621 19.6847 19.1562ZM19.8593 17.1639C20.2867 17.2013 20.6426 17.3451 20.9364 17.52C22.1515 18.2435 22.6623 19.8039 21.8865 21.1476C21.1598 22.4063 19.7151 22.8336 18.7272 22.9884C18.1962 23.0717 17.7002 23.0917 17.3249 23.0859C17.137 23.083 16.9709 23.0735 16.8381 23.0604C16.773 23.054 16.7055 23.0457 16.6423 23.0346C16.6115 23.0292 16.5696 23.0211 16.5237 23.0091C16.523 23.0089 16.5222 23.0087 16.5212 23.0085C16.4951 23.0017 16.3798 22.9719 16.2558 22.9003C16.1318 22.8287 16.0483 22.7438 16.0294 22.7245C16.0287 22.7238 16.0281 22.7232 16.0276 22.7227C15.9942 22.6889 15.9663 22.6567 15.9462 22.6328C15.905 22.5835 15.8641 22.5292 15.826 22.4761C15.7482 22.3676 15.6569 22.2285 15.5605 22.0672C15.3678 21.7451 15.1371 21.3055 14.9438 20.8041C14.5839 19.8711 14.2316 18.4063 14.9583 17.1476C15.7282 15.8141 17.3423 15.4449 18.5866 16.1633C18.8721 16.3281 19.1702 16.561 19.4157 16.9082C19.4716 16.9872 19.5229 17.0696 19.5698 17.1554C19.6669 17.1527 19.7633 17.1554 19.8593 17.1639Z" fill="#A02323"/>
<path id="Union_3" fill-rule="evenodd" clip-rule="evenodd" d="M17.8654 4.17431C17.5546 4.24121 17.1584 4.41351 16.6578 4.81366C16.4095 5.0121 16.0816 5.08069 15.7746 4.99843C15.4676 4.91616 15.218 4.69284 15.1022 4.39683C14.8708 3.80552 14.6114 3.45993 14.3725 3.24574C14.1364 3.03401 13.8721 2.90735 13.5619 2.82424C12.4271 2.52017 11.0804 3.19896 10.6502 4.80463C10.2107 6.44475 10.9123 8.26894 11.9441 9.83377C12.4444 10.5927 12.9877 11.2367 13.4203 11.6924C13.5927 11.8741 13.7437 12.0219 13.8632 12.132C14.0217 12.0964 14.2264 12.0439 14.4665 11.9728C15.069 11.7944 15.8615 11.5083 16.6743 11.1012C18.3502 10.2619 19.87 9.03294 20.3094 7.39282C20.736 5.80067 19.9174 4.54537 18.7637 4.21795C18.4561 4.13064 18.1701 4.10875 17.8654 4.17431ZM17.4446 2.21909C18.1287 2.07185 18.7515 2.13549 19.3098 2.29393C21.6197 2.9495 22.9218 5.37076 22.2413 7.91046C21.5736 10.4022 19.3915 11.9772 17.5699 12.8895C16.6339 13.3582 15.7287 13.6849 15.0345 13.8905C14.6873 13.9933 14.3845 14.0683 14.1491 14.1161C14.0328 14.1397 13.9218 14.1589 13.8242 14.1707C13.7763 14.1765 13.7184 14.1822 13.6576 14.1841L13.6548 14.1842C13.6185 14.1854 13.4801 14.1899 13.323 14.1479C13.166 14.1058 13.0483 14.0326 13.0175 14.0135L13.0151 14.012C12.9634 13.9799 12.9161 13.9461 12.8776 13.9171C12.7989 13.858 12.7125 13.7859 12.6235 13.7073C12.4435 13.5482 12.2188 13.3318 11.9696 13.0692C11.4712 12.544 10.8505 11.8086 10.2743 10.9347C9.15292 9.23382 8.05064 6.77878 8.71831 4.28699C9.3952 1.76081 11.7371 0.264715 14.0796 0.89239C14.6237 1.03819 15.1893 1.29187 15.7076 1.75663C15.969 1.99098 16.2058 2.26767 16.4176 2.59066C16.7601 2.41608 17.1016 2.2929 17.4446 2.21909Z" fill="#A02323"/>
</g>
</svg>
